<mxfile host="app.diagrams.net" agent="Mozilla/5.0 (Windows NT 10.0; Win64; x64; rv:136.0) Gecko/20100101 Firefox/136.0" version="26.1.1">
  <diagram id="R2lEEEUBdFMjLlhIrx00" name="Page-1">
    <mxGraphModel dx="1195" dy="685" grid="1" gridSize="10" guides="1" tooltips="1" connect="1" arrows="1" fold="1" page="1" pageScale="1" pageWidth="850" pageHeight="1100" math="0" shadow="0" extFonts="Permanent Marker^https://fonts.googleapis.com/css?family=Permanent+Marker">
      <root>
        <mxCell id="0" />
        <mxCell id="1" parent="0" />
        <mxCell id="tziCC_M-l1-tC98nSuf9-38" style="edgeStyle=orthogonalEdgeStyle;rounded=0;orthogonalLoop=1;jettySize=auto;html=1;exitX=0.5;exitY=0;exitDx=0;exitDy=0;entryX=0.5;entryY=1;entryDx=0;entryDy=0;endArrow=block;endFill=1;" edge="1" parent="1" source="tziCC_M-l1-tC98nSuf9-1" target="tziCC_M-l1-tC98nSuf9-35">
          <mxGeometry relative="1" as="geometry" />
        </mxCell>
        <mxCell id="tziCC_M-l1-tC98nSuf9-74" style="edgeStyle=orthogonalEdgeStyle;rounded=0;orthogonalLoop=1;jettySize=auto;html=1;exitX=0.25;exitY=1;exitDx=0;exitDy=0;entryX=0.25;entryY=1;entryDx=0;entryDy=0;" edge="1" parent="1" source="tziCC_M-l1-tC98nSuf9-1" target="tziCC_M-l1-tC98nSuf9-58">
          <mxGeometry relative="1" as="geometry">
            <Array as="points">
              <mxPoint x="50" y="500" />
              <mxPoint x="480" y="500" />
            </Array>
          </mxGeometry>
        </mxCell>
        <mxCell id="tziCC_M-l1-tC98nSuf9-1" value="&lt;font face=&quot;Tahoma&quot;&gt;&lt;b&gt;DomainParticipant&lt;/b&gt;&lt;br&gt;(DDS)&lt;/font&gt;" style="whiteSpace=wrap;html=1;align=center;" vertex="1" parent="1">
          <mxGeometry x="20" y="160" width="120" height="40" as="geometry" />
        </mxCell>
        <mxCell id="tziCC_M-l1-tC98nSuf9-2" value="" style="edgeStyle=entityRelationEdgeStyle;fontSize=11;html=1;endArrow=open;endFill=0;rounded=0;exitX=1;exitY=0.5;exitDx=0;exitDy=0;entryX=0;entryY=0.5;entryDx=0;entryDy=0;startArrow=diamondThin;startFill=1;strokeColor=default;align=center;verticalAlign=middle;fontFamily=Helvetica;fontColor=default;labelBackgroundColor=default;" edge="1" parent="1" source="tziCC_M-l1-tC98nSuf9-1" target="tziCC_M-l1-tC98nSuf9-3">
          <mxGeometry width="100" height="100" relative="1" as="geometry">
            <mxPoint x="350" y="560" as="sourcePoint" />
            <mxPoint x="450" y="460" as="targetPoint" />
          </mxGeometry>
        </mxCell>
        <mxCell id="tziCC_M-l1-tC98nSuf9-42" style="edgeStyle=orthogonalEdgeStyle;rounded=0;orthogonalLoop=1;jettySize=auto;html=1;exitX=0.25;exitY=1;exitDx=0;exitDy=0;entryX=0.25;entryY=0;entryDx=0;entryDy=0;startArrow=diamondThin;startFill=1;endArrow=open;endFill=0;" edge="1" parent="1" source="tziCC_M-l1-tC98nSuf9-3" target="tziCC_M-l1-tC98nSuf9-40">
          <mxGeometry relative="1" as="geometry" />
        </mxCell>
        <mxCell id="tziCC_M-l1-tC98nSuf9-43" style="edgeStyle=orthogonalEdgeStyle;rounded=0;orthogonalLoop=1;jettySize=auto;html=1;exitX=0.75;exitY=1;exitDx=0;exitDy=0;entryX=0.25;entryY=0;entryDx=0;entryDy=0;strokeColor=default;align=center;verticalAlign=middle;fontFamily=Helvetica;fontSize=11;fontColor=default;labelBackgroundColor=default;startArrow=diamondThin;startFill=1;endArrow=open;endFill=0;" edge="1" parent="1" source="tziCC_M-l1-tC98nSuf9-3" target="tziCC_M-l1-tC98nSuf9-41">
          <mxGeometry relative="1" as="geometry" />
        </mxCell>
        <mxCell id="tziCC_M-l1-tC98nSuf9-3" value="&lt;font face=&quot;Tahoma&quot;&gt;&lt;b&gt;DomainEntity&lt;/b&gt;&lt;/font&gt;" style="whiteSpace=wrap;html=1;align=center;" vertex="1" parent="1">
          <mxGeometry x="220" y="160" width="100" height="40" as="geometry" />
        </mxCell>
        <mxCell id="tziCC_M-l1-tC98nSuf9-4" value="1&lt;span style=&quot;white-space: pre;&quot;&gt;&#x9;&lt;/span&gt;&lt;span style=&quot;white-space: pre;&quot;&gt;&#x9;&lt;/span&gt;0...*" style="text;html=1;align=center;verticalAlign=middle;whiteSpace=wrap;rounded=0;" vertex="1" parent="1">
          <mxGeometry x="140" y="181" width="80" height="20" as="geometry" />
        </mxCell>
        <mxCell id="tziCC_M-l1-tC98nSuf9-34" value="&lt;font style=&quot;font-size: 24px;&quot;&gt;Correspondencia entre las entradas RTPS y DDS&lt;/font&gt;" style="text;html=1;align=center;verticalAlign=middle;whiteSpace=wrap;rounded=0;" vertex="1" parent="1">
          <mxGeometry x="148" y="20" width="555" height="30" as="geometry" />
        </mxCell>
        <mxCell id="tziCC_M-l1-tC98nSuf9-35" value="&lt;font face=&quot;Tahoma&quot;&gt;&lt;b&gt;Entity&lt;/b&gt;&lt;br&gt;(DDS)&lt;/font&gt;" style="whiteSpace=wrap;html=1;align=center;" vertex="1" parent="1">
          <mxGeometry x="130" y="80" width="100" height="40" as="geometry" />
        </mxCell>
        <mxCell id="tziCC_M-l1-tC98nSuf9-39" value="" style="endArrow=none;html=1;rounded=0;exitX=0.5;exitY=0;exitDx=0;exitDy=0;" edge="1" parent="1" source="tziCC_M-l1-tC98nSuf9-3">
          <mxGeometry width="50" height="50" relative="1" as="geometry">
            <mxPoint x="320" y="310" as="sourcePoint" />
            <mxPoint x="180" y="140" as="targetPoint" />
            <Array as="points">
              <mxPoint x="270" y="140" />
            </Array>
          </mxGeometry>
        </mxCell>
        <mxCell id="tziCC_M-l1-tC98nSuf9-50" style="edgeStyle=orthogonalEdgeStyle;rounded=0;orthogonalLoop=1;jettySize=auto;html=1;exitX=0.25;exitY=1;exitDx=0;exitDy=0;entryX=0.25;entryY=0;entryDx=0;entryDy=0;strokeColor=default;align=center;verticalAlign=middle;fontFamily=Helvetica;fontSize=11;fontColor=default;labelBackgroundColor=default;startArrow=diamondThin;startFill=1;endArrow=open;endFill=0;" edge="1" parent="1" source="tziCC_M-l1-tC98nSuf9-40" target="tziCC_M-l1-tC98nSuf9-48">
          <mxGeometry relative="1" as="geometry" />
        </mxCell>
        <mxCell id="tziCC_M-l1-tC98nSuf9-75" style="edgeStyle=orthogonalEdgeStyle;rounded=0;orthogonalLoop=1;jettySize=auto;html=1;exitX=0.75;exitY=1;exitDx=0;exitDy=0;entryX=0.25;entryY=1;entryDx=0;entryDy=0;endArrow=none;startFill=0;" edge="1" parent="1" source="tziCC_M-l1-tC98nSuf9-40" target="tziCC_M-l1-tC98nSuf9-59">
          <mxGeometry relative="1" as="geometry">
            <Array as="points">
              <mxPoint x="205" y="330" />
              <mxPoint x="680" y="330" />
            </Array>
          </mxGeometry>
        </mxCell>
        <mxCell id="tziCC_M-l1-tC98nSuf9-40" value="&lt;font face=&quot;Tahoma&quot;&gt;&lt;b&gt;Publisher&lt;/b&gt;&lt;br&gt;(DDS)&lt;/font&gt;" style="whiteSpace=wrap;html=1;align=center;" vertex="1" parent="1">
          <mxGeometry x="130" y="260" width="100" height="40" as="geometry" />
        </mxCell>
        <mxCell id="tziCC_M-l1-tC98nSuf9-51" style="edgeStyle=orthogonalEdgeStyle;rounded=0;orthogonalLoop=1;jettySize=auto;html=1;exitX=0.25;exitY=1;exitDx=0;exitDy=0;entryX=0.25;entryY=0;entryDx=0;entryDy=0;strokeColor=default;align=center;verticalAlign=middle;fontFamily=Helvetica;fontSize=11;fontColor=default;labelBackgroundColor=default;startArrow=diamondThin;startFill=1;endArrow=open;endFill=0;" edge="1" parent="1" source="tziCC_M-l1-tC98nSuf9-41" target="tziCC_M-l1-tC98nSuf9-49">
          <mxGeometry relative="1" as="geometry" />
        </mxCell>
        <mxCell id="tziCC_M-l1-tC98nSuf9-41" value="&lt;font face=&quot;Tahoma&quot;&gt;&lt;b&gt;Subscriber&lt;/b&gt;&lt;br&gt;(DDS)&lt;/font&gt;" style="whiteSpace=wrap;html=1;align=center;" vertex="1" parent="1">
          <mxGeometry x="270" y="260" width="100" height="40" as="geometry" />
        </mxCell>
        <mxCell id="tziCC_M-l1-tC98nSuf9-44" value="1" style="text;html=1;align=center;verticalAlign=middle;whiteSpace=wrap;rounded=0;" vertex="1" parent="1">
          <mxGeometry x="215" y="200" width="30" height="20" as="geometry" />
        </mxCell>
        <mxCell id="tziCC_M-l1-tC98nSuf9-45" value="0...*" style="text;html=1;align=center;verticalAlign=middle;whiteSpace=wrap;rounded=0;" vertex="1" parent="1">
          <mxGeometry x="124" y="240" width="30" height="20" as="geometry" />
        </mxCell>
        <mxCell id="tziCC_M-l1-tC98nSuf9-46" value="1" style="text;html=1;align=center;verticalAlign=middle;whiteSpace=wrap;rounded=0;" vertex="1" parent="1">
          <mxGeometry x="264" y="201" width="30" height="20" as="geometry" />
        </mxCell>
        <mxCell id="tziCC_M-l1-tC98nSuf9-47" value="0...*" style="text;html=1;align=center;verticalAlign=middle;whiteSpace=wrap;rounded=0;" vertex="1" parent="1">
          <mxGeometry x="264" y="240" width="30" height="20" as="geometry" />
        </mxCell>
        <mxCell id="tziCC_M-l1-tC98nSuf9-73" style="edgeStyle=orthogonalEdgeStyle;rounded=0;orthogonalLoop=1;jettySize=auto;html=1;exitX=0.5;exitY=1;exitDx=0;exitDy=0;entryX=0.5;entryY=1;entryDx=0;entryDy=0;endArrow=none;startFill=0;" edge="1" parent="1" source="tziCC_M-l1-tC98nSuf9-48" target="tziCC_M-l1-tC98nSuf9-68">
          <mxGeometry relative="1" as="geometry">
            <Array as="points">
              <mxPoint x="180" y="460" />
              <mxPoint x="630" y="460" />
            </Array>
          </mxGeometry>
        </mxCell>
        <mxCell id="tziCC_M-l1-tC98nSuf9-48" value="&lt;font face=&quot;Tahoma&quot;&gt;&lt;b&gt;DataWriter&lt;/b&gt;&lt;br&gt;(DDS)&lt;/font&gt;" style="whiteSpace=wrap;html=1;align=center;" vertex="1" parent="1">
          <mxGeometry x="130" y="360" width="100" height="40" as="geometry" />
        </mxCell>
        <mxCell id="tziCC_M-l1-tC98nSuf9-72" style="edgeStyle=orthogonalEdgeStyle;rounded=0;orthogonalLoop=1;jettySize=auto;html=1;exitX=0.5;exitY=1;exitDx=0;exitDy=0;entryX=0.5;entryY=1;entryDx=0;entryDy=0;endArrow=none;startFill=0;" edge="1" parent="1" source="tziCC_M-l1-tC98nSuf9-49" target="tziCC_M-l1-tC98nSuf9-67">
          <mxGeometry relative="1" as="geometry">
            <Array as="points">
              <mxPoint x="320" y="440" />
              <mxPoint x="780" y="440" />
            </Array>
          </mxGeometry>
        </mxCell>
        <mxCell id="tziCC_M-l1-tC98nSuf9-49" value="&lt;font face=&quot;Tahoma&quot;&gt;&lt;b&gt;DataReader&lt;/b&gt;&lt;br&gt;(DDS)&lt;/font&gt;" style="whiteSpace=wrap;html=1;align=center;" vertex="1" parent="1">
          <mxGeometry x="270" y="360" width="100" height="40" as="geometry" />
        </mxCell>
        <mxCell id="tziCC_M-l1-tC98nSuf9-52" value="1" style="text;html=1;align=center;verticalAlign=middle;whiteSpace=wrap;rounded=0;" vertex="1" parent="1">
          <mxGeometry x="124" y="300" width="30" height="20" as="geometry" />
        </mxCell>
        <mxCell id="tziCC_M-l1-tC98nSuf9-54" value="1" style="text;html=1;align=center;verticalAlign=middle;whiteSpace=wrap;rounded=0;" vertex="1" parent="1">
          <mxGeometry x="264" y="300" width="30" height="20" as="geometry" />
        </mxCell>
        <mxCell id="tziCC_M-l1-tC98nSuf9-55" value="0...*" style="text;html=1;align=center;verticalAlign=middle;whiteSpace=wrap;rounded=0;" vertex="1" parent="1">
          <mxGeometry x="124" y="340" width="30" height="20" as="geometry" />
        </mxCell>
        <mxCell id="tziCC_M-l1-tC98nSuf9-56" value="0...*" style="text;html=1;align=center;verticalAlign=middle;whiteSpace=wrap;rounded=0;" vertex="1" parent="1">
          <mxGeometry x="264" y="340" width="30" height="20" as="geometry" />
        </mxCell>
        <mxCell id="tziCC_M-l1-tC98nSuf9-57" value="&lt;font face=&quot;Tahoma&quot;&gt;&lt;b&gt;Entity&lt;/b&gt;&lt;br&gt;(Protocol.Structure)&lt;/font&gt;" style="whiteSpace=wrap;html=1;align=center;" vertex="1" parent="1">
          <mxGeometry x="540" y="80" width="130" height="40" as="geometry" />
        </mxCell>
        <mxCell id="tziCC_M-l1-tC98nSuf9-60" style="edgeStyle=orthogonalEdgeStyle;rounded=0;orthogonalLoop=1;jettySize=auto;html=1;exitX=0.25;exitY=0;exitDx=0;exitDy=0;entryX=0.5;entryY=1;entryDx=0;entryDy=0;endArrow=block;endFill=1;" edge="1" parent="1" source="tziCC_M-l1-tC98nSuf9-58" target="tziCC_M-l1-tC98nSuf9-57">
          <mxGeometry relative="1" as="geometry" />
        </mxCell>
        <mxCell id="tziCC_M-l1-tC98nSuf9-62" style="edgeStyle=orthogonalEdgeStyle;rounded=0;orthogonalLoop=1;jettySize=auto;html=1;exitX=1;exitY=0.5;exitDx=0;exitDy=0;entryX=0;entryY=0.5;entryDx=0;entryDy=0;strokeColor=default;align=center;verticalAlign=middle;fontFamily=Helvetica;fontSize=11;fontColor=default;labelBackgroundColor=default;startArrow=diamondThin;startFill=1;endArrow=open;endFill=0;" edge="1" parent="1" source="tziCC_M-l1-tC98nSuf9-58" target="tziCC_M-l1-tC98nSuf9-59">
          <mxGeometry relative="1" as="geometry" />
        </mxCell>
        <mxCell id="tziCC_M-l1-tC98nSuf9-58" value="&lt;font face=&quot;Tahoma&quot;&gt;&lt;b&gt;Participant&lt;/b&gt;&lt;font face=&quot;Tahoma&quot;&gt;&lt;br&gt;(Protocol.Structure)&lt;/font&gt;&lt;/font&gt;" style="whiteSpace=wrap;html=1;align=center;" vertex="1" parent="1">
          <mxGeometry x="450" y="160" width="120" height="40" as="geometry" />
        </mxCell>
        <mxCell id="tziCC_M-l1-tC98nSuf9-65" style="edgeStyle=orthogonalEdgeStyle;rounded=0;orthogonalLoop=1;jettySize=auto;html=1;exitX=0.75;exitY=1;exitDx=0;exitDy=0;entryX=0.25;entryY=0;entryDx=0;entryDy=0;strokeColor=default;align=center;verticalAlign=middle;fontFamily=Helvetica;fontSize=11;fontColor=default;labelBackgroundColor=default;startArrow=diamondThin;startFill=1;endArrow=open;endFill=0;" edge="1" parent="1" source="tziCC_M-l1-tC98nSuf9-59" target="tziCC_M-l1-tC98nSuf9-64">
          <mxGeometry relative="1" as="geometry" />
        </mxCell>
        <mxCell id="tziCC_M-l1-tC98nSuf9-59" value="&lt;font face=&quot;Tahoma&quot;&gt;&lt;b&gt;Group&lt;/b&gt;&lt;font face=&quot;Tahoma&quot;&gt;&lt;br&gt;(Protocol.Structure)&lt;/font&gt;&lt;/font&gt;" style="whiteSpace=wrap;html=1;align=center;" vertex="1" parent="1">
          <mxGeometry x="650" y="160" width="120" height="40" as="geometry" />
        </mxCell>
        <mxCell id="tziCC_M-l1-tC98nSuf9-61" value="" style="endArrow=none;html=1;rounded=0;exitX=0.25;exitY=0;exitDx=0;exitDy=0;" edge="1" parent="1" source="tziCC_M-l1-tC98nSuf9-59">
          <mxGeometry width="50" height="50" relative="1" as="geometry">
            <mxPoint x="660" y="280" as="sourcePoint" />
            <mxPoint x="600" y="140" as="targetPoint" />
            <Array as="points">
              <mxPoint x="680" y="140" />
            </Array>
          </mxGeometry>
        </mxCell>
        <mxCell id="tziCC_M-l1-tC98nSuf9-63" value="1&lt;span style=&quot;white-space: pre;&quot;&gt;&#x9;&lt;/span&gt;&lt;span style=&quot;white-space: pre;&quot;&gt;&#x9;&lt;/span&gt;0...*" style="text;html=1;align=center;verticalAlign=middle;whiteSpace=wrap;rounded=0;" vertex="1" parent="1">
          <mxGeometry x="570" y="181" width="80" height="20" as="geometry" />
        </mxCell>
        <mxCell id="tziCC_M-l1-tC98nSuf9-64" value="&lt;font face=&quot;Tahoma&quot;&gt;&lt;b&gt;Endpoint&lt;/b&gt;&lt;font face=&quot;Tahoma&quot;&gt;&lt;br&gt;(Protocol.Structure)&lt;/font&gt;&lt;/font&gt;" style="whiteSpace=wrap;html=1;align=center;" vertex="1" parent="1">
          <mxGeometry x="710" y="280" width="120" height="40" as="geometry" />
        </mxCell>
        <mxCell id="tziCC_M-l1-tC98nSuf9-66" value="" style="endArrow=none;html=1;rounded=0;exitX=0.75;exitY=0;exitDx=0;exitDy=0;" edge="1" parent="1" source="tziCC_M-l1-tC98nSuf9-64">
          <mxGeometry width="50" height="50" relative="1" as="geometry">
            <mxPoint x="480" y="320" as="sourcePoint" />
            <mxPoint x="680" y="140" as="targetPoint" />
            <Array as="points">
              <mxPoint x="800" y="140" />
            </Array>
          </mxGeometry>
        </mxCell>
        <mxCell id="tziCC_M-l1-tC98nSuf9-67" value="&lt;font face=&quot;Tahoma&quot;&gt;&lt;b&gt;Reader&lt;/b&gt;&lt;font face=&quot;Tahoma&quot;&gt;&lt;br&gt;(Protocol.Structure)&lt;/font&gt;&lt;/font&gt;" style="whiteSpace=wrap;html=1;align=center;" vertex="1" parent="1">
          <mxGeometry x="720" y="360" width="120" height="40" as="geometry" />
        </mxCell>
        <mxCell id="tziCC_M-l1-tC98nSuf9-69" style="edgeStyle=orthogonalEdgeStyle;rounded=0;orthogonalLoop=1;jettySize=auto;html=1;exitX=0.75;exitY=0;exitDx=0;exitDy=0;entryX=0.25;entryY=1;entryDx=0;entryDy=0;endArrow=block;endFill=1;" edge="1" parent="1" source="tziCC_M-l1-tC98nSuf9-68" target="tziCC_M-l1-tC98nSuf9-64">
          <mxGeometry relative="1" as="geometry" />
        </mxCell>
        <mxCell id="tziCC_M-l1-tC98nSuf9-68" value="&lt;font face=&quot;Tahoma&quot;&gt;&lt;b&gt;Writer&lt;/b&gt;&lt;font face=&quot;Tahoma&quot;&gt;&lt;br&gt;(Protocol.Structure)&lt;/font&gt;&lt;/font&gt;" style="whiteSpace=wrap;html=1;align=center;" vertex="1" parent="1">
          <mxGeometry x="570" y="360" width="120" height="40" as="geometry" />
        </mxCell>
        <mxCell id="tziCC_M-l1-tC98nSuf9-70" value="" style="endArrow=none;html=1;rounded=0;exitX=0.75;exitY=0;exitDx=0;exitDy=0;" edge="1" parent="1" source="tziCC_M-l1-tC98nSuf9-67">
          <mxGeometry width="50" height="50" relative="1" as="geometry">
            <mxPoint x="745" y="480" as="sourcePoint" />
            <mxPoint x="740" y="340" as="targetPoint" />
            <Array as="points">
              <mxPoint x="810" y="340" />
            </Array>
          </mxGeometry>
        </mxCell>
        <mxCell id="tziCC_M-l1-tC98nSuf9-71" style="edgeStyle=orthogonalEdgeStyle;rounded=0;orthogonalLoop=1;jettySize=auto;html=1;exitX=0.25;exitY=0;exitDx=0;exitDy=0;entryX=0.5;entryY=0;entryDx=0;entryDy=0;" edge="1" parent="1" source="tziCC_M-l1-tC98nSuf9-48" target="tziCC_M-l1-tC98nSuf9-48">
          <mxGeometry relative="1" as="geometry" />
        </mxCell>
        <mxCell id="tziCC_M-l1-tC98nSuf9-76" style="edgeStyle=orthogonalEdgeStyle;rounded=0;orthogonalLoop=1;jettySize=auto;html=1;exitX=0.75;exitY=1;exitDx=0;exitDy=0;entryX=0.09;entryY=1.042;entryDx=0;entryDy=0;entryPerimeter=0;endArrow=none;startFill=0;" edge="1" parent="1" source="tziCC_M-l1-tC98nSuf9-41" target="tziCC_M-l1-tC98nSuf9-59">
          <mxGeometry relative="1" as="geometry">
            <Array as="points">
              <mxPoint x="345" y="320" />
              <mxPoint x="661" y="320" />
            </Array>
          </mxGeometry>
        </mxCell>
        <mxCell id="tziCC_M-l1-tC98nSuf9-77" value="1" style="text;html=1;align=center;verticalAlign=middle;whiteSpace=wrap;rounded=0;" vertex="1" parent="1">
          <mxGeometry x="149" y="400" width="30" height="20" as="geometry" />
        </mxCell>
        <mxCell id="tziCC_M-l1-tC98nSuf9-78" value="1" style="text;html=1;align=center;verticalAlign=middle;whiteSpace=wrap;rounded=0;" vertex="1" parent="1">
          <mxGeometry x="290" y="400" width="30" height="20" as="geometry" />
        </mxCell>
        <mxCell id="tziCC_M-l1-tC98nSuf9-79" value="1" style="text;html=1;align=center;verticalAlign=middle;whiteSpace=wrap;rounded=0;" vertex="1" parent="1">
          <mxGeometry x="600" y="400" width="30" height="20" as="geometry" />
        </mxCell>
        <mxCell id="tziCC_M-l1-tC98nSuf9-80" value="1" style="text;html=1;align=center;verticalAlign=middle;whiteSpace=wrap;rounded=0;" vertex="1" parent="1">
          <mxGeometry x="750" y="400" width="30" height="20" as="geometry" />
        </mxCell>
        <mxCell id="tziCC_M-l1-tC98nSuf9-81" value="&lt;font style=&quot;font-size: 10px;&quot; face=&quot;Tahoma&quot;&gt;+ related_rtps_reader&lt;/font&gt;" style="text;html=1;align=center;verticalAlign=middle;whiteSpace=wrap;rounded=0;" vertex="1" parent="1">
          <mxGeometry x="360" y="410" width="110" height="20" as="geometry" />
        </mxCell>
        <mxCell id="tziCC_M-l1-tC98nSuf9-82" value="&lt;font style=&quot;font-size: 10px;&quot; face=&quot;Tahoma&quot;&gt;+ related_rtps_writer&lt;/font&gt;" style="text;html=1;align=center;verticalAlign=middle;whiteSpace=wrap;rounded=0;" vertex="1" parent="1">
          <mxGeometry x="200" y="430" width="110" height="20" as="geometry" />
        </mxCell>
        <mxCell id="tziCC_M-l1-tC98nSuf9-83" value="&lt;font style=&quot;font-size: 10px;&quot; face=&quot;Tahoma&quot;&gt;+ related_rtps_participant&lt;/font&gt;" style="text;html=1;align=center;verticalAlign=middle;whiteSpace=wrap;rounded=0;" vertex="1" parent="1">
          <mxGeometry x="84" y="470" width="126" height="20" as="geometry" />
        </mxCell>
        <mxCell id="tziCC_M-l1-tC98nSuf9-84" value="&lt;font face=&quot;Tahoma&quot;&gt;©&lt;font style=&quot;font-size: 10px;&quot;&gt; 2024 Clearpath Robotics by Rockwell Automation&lt;/font&gt;&lt;/font&gt;" style="text;html=1;align=center;verticalAlign=middle;whiteSpace=wrap;rounded=0;" vertex="1" parent="1">
          <mxGeometry x="600" y="520" width="240" height="20" as="geometry" />
        </mxCell>
      </root>
    </mxGraphModel>
  </diagram>
</mxfile>
